<svg width="103" height="147" viewBox="0 0 103 146" fill="none" xmlns="http://www.w3.org/2000/svg">
<path opacity="0.05" d="M102.244 146H2.284V119.48L49.612 69.4999C54.78 63.9239 58.316 59.6399 60.22 56.6479C62.26 53.5199 63.28 50.4599 63.28 47.4679C63.28 43.7959 62.124 40.9399 59.812 38.8999C57.636 36.7239 54.576 35.6359 50.632 35.6359C42.064 35.6359 35.672 40.5999 31.456 50.5279L0.0400001 32.9839C4.528 22.5119 11.192 14.4199 20.032 8.70787C29.008 2.99587 39.072 0.139871 50.224 0.139871C63.824 0.139871 75.452 4.21987 85.108 12.3799C94.9 20.4039 99.796 31.4199 99.796 45.4279C99.796 53.3159 97.96 60.7959 94.288 67.8679C90.616 74.8039 84.836 82.3519 76.948 90.5119L57.568 110.708H102.244V146Z" fill="black"/>
</svg>
