<svg width="105" height="147" viewBox="0 0 105 147" fill="none" xmlns="http://www.w3.org/2000/svg">
<path opacity="0.05" d="M97.96 28.9639L74.092 58.3399C83.34 61.1959 90.684 66.1599 96.124 73.2319C101.7 80.1679 104.488 88.4639 104.488 98.1199C104.488 113.352 99.456 125.184 89.392 133.616C79.464 141.912 67.02 146.06 52.06 146.06C39.956 146.06 29.348 143.34 20.236 137.9C11.124 132.324 4.596 124.3 0.652 113.828L32.476 95.6719C35.468 105.6 41.996 110.564 52.06 110.564C57.228 110.564 61.172 109.34 63.892 106.892C66.748 104.444 68.176 101.18 68.176 97.0999C68.176 93.0199 66.748 89.8239 63.892 87.5119C61.172 85.0639 57.228 83.8399 52.06 83.8399H44.308L30.232 63.0319L53.08 35.0839H5.14V0.199868H97.96V28.9639Z" fill="black"/>
</svg>
