<svg width="1343" height="499" viewBox="0 0 1343 499" fill="none" xmlns="http://www.w3.org/2000/svg">
<circle cx="1246" cy="228" r="228" fill="#F5F8FF"/>
<g filter="url(#filter0_d_2590_292)">
<path d="M26.5 361C74.5 396 186.3 462 249.5 446C328.5 426 348 323 470 299C592 275 681.5 358.5 776 238C870.5 117.5 916.5 38.5003 1043.5 55.5003" stroke="#F57059" stroke-width="5" stroke-linecap="round" stroke-linejoin="round"/>
</g>
<rect x="151" y="404" width="64" height="64" rx="20" fill="white"/>
<rect x="171" y="424" width="23" height="23" rx="10" fill="#C4C4C4"/>
<rect x="618" y="272" width="64" height="64" rx="20" fill="white"/>
<rect x="638" y="292" width="23" height="23" rx="10" fill="#C4C4C4"/>
<rect x="954" y="23.9998" width="64" height="64" rx="20" fill="white"/>
<rect x="974" y="43.9998" width="23" height="23" rx="10" fill="#C4C4C4"/>
<defs>
<filter id="filter0_d_2590_292" x="0" y="50.7036" width="1070" height="448.255" filterUnits="userSpaceOnUse" color-interpolation-filters="sRGB">
<feFlood flood-opacity="0" result="BackgroundImageFix"/>
<feColorMatrix in="SourceAlpha" type="matrix" values="0 0 0 0 0 0 0 0 0 0 0 0 0 0 0 0 0 0 127 0" result="hardAlpha"/>
<feOffset dy="24"/>
<feGaussianBlur stdDeviation="12"/>
<feComposite in2="hardAlpha" operator="out"/>
<feColorMatrix type="matrix" values="0 0 0 0 0.215686 0 0 0 0 0.203922 0 0 0 0 0.662745 0 0 0 0.3 0"/>
<feBlend mode="normal" in2="BackgroundImageFix" result="effect1_dropShadow_2590_292"/>
<feBlend mode="normal" in="SourceGraphic" in2="effect1_dropShadow_2590_292" result="shape"/>
</filter>
</defs>
</svg>
