<svg width="1070" height="475" viewBox="0 0 1070 475" fill="none" xmlns="http://www.w3.org/2000/svg">
<g filter="url(#filter0_d_2588_290)">
<path d="M26.5 337C74.5 372 186.3 438 249.5 422C328.5 402 348 299 470 275C592 251 681.5 334.5 776 214C870.5 93.5003 916.5 14.5003 1043.5 31.5003" stroke="#F57059" stroke-width="5" stroke-linecap="round" stroke-linejoin="round"/>
</g>
<rect x="151" y="380" width="64" height="64" rx="20" fill="white"/>
<rect x="171" y="400" width="23" height="23" rx="10" fill="#C4C4C4"/>
<rect x="618" y="248" width="64" height="64" rx="20" fill="white"/>
<rect x="638" y="268" width="23" height="23" rx="10" fill="#C4C4C4"/>
<rect x="954" y="-0.000244141" width="64" height="64" rx="20" fill="white"/>
<rect x="974" y="19.9998" width="23" height="23" rx="10" fill="#C4C4C4"/>
<defs>
<filter id="filter0_d_2588_290" x="0" y="26.7036" width="1070" height="448.255" filterUnits="userSpaceOnUse" color-interpolation-filters="sRGB">
<feFlood flood-opacity="0" result="BackgroundImageFix"/>
<feColorMatrix in="SourceAlpha" type="matrix" values="0 0 0 0 0 0 0 0 0 0 0 0 0 0 0 0 0 0 127 0" result="hardAlpha"/>
<feOffset dy="24"/>
<feGaussianBlur stdDeviation="12"/>
<feComposite in2="hardAlpha" operator="out"/>
<feColorMatrix type="matrix" values="0 0 0 0 0.215686 0 0 0 0 0.203922 0 0 0 0 0.662745 0 0 0 0.3 0"/>
<feBlend mode="normal" in2="BackgroundImageFix" result="effect1_dropShadow_2588_290"/>
<feBlend mode="normal" in="SourceGraphic" in2="effect1_dropShadow_2588_290" result="shape"/>
</filter>
</defs>
</svg>
